<svg id="Layer_1" data-name="Layer 1" xmlns="http://www.w3.org/2000/svg" viewBox="0 0 2945.56 2267.2">
  <defs>
    <style>
      .cls-1 {
        fill: #2056f7;
        fill-rule: evenodd;
      }
    </style>
  </defs>
  <g>
    <path class="cls-1" d="M899.63,2182.6,562.78,925.44h453.89L1207.87,1639a1062.76,1062.76,0,0,0-114.94,128.12,1073.83,1073.83,0,0,0-131.81,226.28,1092.66,1092.66,0,0,0-61.49,189.21" transform="translate(-562.78 -925.44)"/>
    <path class="cls-1" d="M2890.54,3192.64,2125,1866.73,1750.41,2083c-1.69,1-3.38,2-5.05,3L2384.3,3192.64Z" transform="translate(-562.78 -925.44)"/>
    <path class="cls-1" d="M3508.33,925.44,1688.65,1976A505.82,505.82,0,0,0,1587,2053.27c-129.46,127.2-181.67,316.16-136.44,491.52q1.56,6,3.26,12.05L1525.11,2823l99.06,369.66h-453.9l-140.41-524-2.77-10.36c-54.2-207-35.3-424.42,47.07-616.36a950.29,950.29,0,0,1,116.68-200.34,939.71,939.71,0,0,1,278.6-245.22l1162-670.9Z" transform="translate(-562.78 -925.44)"/>
  </g>
</svg>
